<?xml version="1.0" standalone="no"?>
<!DOCTYPE svg PUBLIC "-//W3C//DTD SVG 20010904//EN"
 "http://www.w3.org/TR/2001/REC-SVG-20010904/DTD/svg10.dtd">
<svg version="1.0" xmlns="http://www.w3.org/2000/svg"
 width="412.000000pt" height="412.000000pt" viewBox="0 0 412.000000 412.000000"
 preserveAspectRatio="xMidYMid meet">
<metadata>
Created by potrace 1.14, written by Peter Selinger 2001-2017
</metadata>
<g transform="translate(0.000000,412.000000) scale(0.100000,-0.100000)"
fill="#000000" stroke="none">
<path d="M2574 4090 c0 -23 2 -27 13 -19 9 8 10 16 2 30 -13 26 -15 24 -15
-11z"/>
<path d="M2550 4076 c0 -9 -4 -15 -8 -12 -4 2 -14 1 -21 -3 -10 -6 -9 -10 4
-14 11 -5 14 -3 9 6 -5 8 -2 7 9 -2 23 -18 21 -20 -8 -15 -17 3 -25 0 -25 -10
0 -8 -10 -22 -22 -30 -12 -9 -18 -16 -13 -16 6 0 2 -5 -7 -11 -10 -5 -18 -17
-18 -25 0 -8 -4 -13 -9 -9 -6 3 -8 -4 -6 -16 3 -16 1 -18 -8 -10 -10 7 -13 4
-14 -12 -1 -12 -7 -23 -13 -25 -5 -2 -8 -8 -4 -13 3 -5 -2 -9 -11 -9 -10 0
-15 -6 -13 -12 3 -7 -4 -22 -15 -33 -11 -11 -16 -13 -12 -5 5 9 5 12 -1 7 -9
-9 -10 -13 -13 -43 -1 -10 -7 -14 -17 -10 -8 3 -12 2 -9 -4 3 -6 0 -10 -7 -10
-9 0 -9 -3 2 -10 11 -7 11 -10 2 -10 -7 0 -10 -5 -6 -12 4 -7 3 -8 -4 -4 -13
8 -35 -28 -24 -39 4 -3 0 -5 -8 -3 -8 1 -14 -3 -12 -9 1 -7 -2 -13 -8 -13 -5
0 -10 -7 -10 -15 0 -7 -7 -18 -16 -23 -9 -5 -16 -13 -16 -18 0 -5 -4 -8 -10
-6 -5 1 -7 -2 -4 -7 9 -14 -5 -42 -17 -34 -6 4 -8 0 -5 -8 3 -8 -4 -23 -15
-34 -11 -11 -16 -14 -12 -6 6 10 4 12 -4 7 -6 -4 -11 -13 -10 -19 3 -24 -1
-38 -10 -33 -5 3 -12 -2 -15 -12 -10 -26 -33 -64 -44 -71 -6 -3 -12 -13 -14
-21 -2 -8 -14 -23 -28 -34 -20 -14 -21 -17 -5 -12 17 5 18 4 4 -6 -16 -13 -33
-47 -31 -60 1 -4 -6 -4 -15 -1 -12 5 -15 2 -10 -10 4 -12 1 -17 -11 -17 -14 0
-14 -2 -3 -9 11 -7 9 -11 -8 -20 -12 -7 -19 -16 -16 -22 4 -5 1 -9 -4 -9 -6 0
-11 -6 -11 -14 0 -8 -4 -18 -10 -21 -6 -4 -7 1 -4 12 5 14 4 15 -4 4 -6 -8 -8
-20 -5 -28 3 -7 -2 -16 -11 -19 -9 -3 -14 -10 -11 -14 3 -4 -2 -11 -11 -14 -9
-4 -14 -13 -10 -21 3 -8 2 -14 -2 -12 -4 1 -8 -2 -9 -7 0 -5 -8 -13 -17 -18
-9 -5 -14 -13 -11 -19 4 -5 1 -9 -5 -9 -6 0 -9 -4 -5 -9 3 -5 -5 -17 -17 -25
-12 -9 -18 -16 -13 -16 6 0 -1 -10 -15 -21 -14 -11 -19 -18 -12 -14 11 6 12 3
3 -14 -7 -11 -14 -21 -17 -21 -3 0 -2 5 2 12 5 7 3 8 -5 4 -7 -5 -10 -14 -7
-21 2 -7 -6 -21 -19 -31 -13 -9 -21 -23 -18 -31 3 -7 0 -13 -7 -13 -7 0 -10
-7 -6 -16 3 -8 2 -13 -2 -11 -4 3 -13 -1 -20 -9 -7 -8 -10 -14 -7 -14 3 0 -3
-10 -15 -22 -11 -12 -20 -26 -20 -31 0 -6 -8 -16 -17 -24 -10 -8 -12 -12 -5
-8 6 3 12 1 12 -4 0 -6 -7 -11 -15 -11 -8 0 -15 -9 -15 -20 0 -11 -7 -20 -16
-20 -8 0 -12 -4 -9 -10 3 -5 1 -10 -5 -10 -7 0 -10 -7 -6 -15 3 -8 -3 -20 -14
-28 -11 -8 -17 -17 -13 -20 3 -4 -1 -7 -10 -7 -11 0 -17 -8 -17 -24 0 -14 -5
-28 -12 -32 -7 -5 -8 -2 -3 7 6 10 5 11 -4 3 -7 -6 -13 -20 -14 -32 0 -11 -4
-19 -8 -16 -4 2 -10 -5 -14 -16 -4 -11 -11 -17 -17 -14 -7 4 -8 2 -4 -4 10
-17 -34 -88 -47 -75 -4 3 -5 -4 -2 -16 2 -13 -4 -26 -16 -34 -10 -8 -16 -16
-13 -20 3 -3 -4 -11 -16 -17 -12 -6 -19 -14 -16 -17 9 -9 -14 -44 -24 -38 -6
3 -7 -1 -4 -10 5 -11 0 -18 -16 -22 -13 -3 -17 -8 -11 -13 8 -4 4 -15 -12 -32
-13 -14 -23 -33 -21 -41 1 -9 -3 -15 -9 -14 -7 1 -11 -4 -9 -10 1 -7 -2 -13
-8 -13 -6 0 -9 -5 -8 -12 2 -7 -2 -12 -9 -13 -6 0 -15 -4 -20 -9 -5 -5 -3 -6
4 -2 7 4 13 3 13 -2 0 -6 -8 -13 -17 -16 -15 -6 -15 -8 -3 -16 13 -9 13 -10 0
-11 -8 -1 -18 -1 -22 0 -4 0 -5 -5 -2 -13 3 -7 -2 -16 -11 -20 -9 -3 -13 -10
-10 -16 3 -5 1 -10 -5 -10 -6 0 -9 -4 -5 -10 3 -5 -3 -18 -15 -30 -11 -11 -20
-25 -20 -30 0 -6 -7 -13 -16 -17 -12 -4 -12 -8 -4 -13 9 -5 6 -10 -9 -15 -19
-6 -21 -13 -20 -50 2 -29 7 -41 15 -38 6 2 15 -1 20 -8 5 -8 3 -10 -5 -4 -10
5 -9 2 0 -13 7 -12 15 -20 18 -20 25 2 41 -4 35 -13 -4 -8 6 -9 32 -5 22 3 40
5 42 6 2 0 0 5 -3 10 -4 7 3 9 19 6 15 -3 24 -1 21 5 -4 5 1 9 10 9 10 0 13 5
9 12 -5 8 -2 9 9 5 10 -4 17 -1 17 6 0 9 3 8 9 -1 7 -11 9 -11 14 2 4 9 15 16
25 16 10 0 29 9 42 20 13 12 30 18 37 16 7 -3 13 -2 13 2 0 5 19 19 42 32 26
14 38 18 34 9 -4 -8 -1 -6 7 3 8 10 17 15 20 11 4 -3 7 -1 7 6 0 7 5 9 10 6 5
-3 10 -1 10 5 0 7 7 9 16 6 10 -4 13 -2 8 6 -5 7 1 9 19 6 17 -3 24 -1 20 8
-2 6 0 15 6 19 6 3 11 0 11 -7 0 -11 2 -11 9 0 4 7 17 14 29 15 14 1 18 5 12
12 -6 8 -1 11 18 11 16 -1 26 4 25 11 -2 8 4 10 14 6 11 -4 14 -3 9 5 -5 8 -1
10 10 5 12 -4 15 -3 10 5 -5 8 -1 10 10 5 11 -4 23 2 36 18 16 19 19 20 14 5
-7 -19 -6 -19 13 -2 11 10 24 15 30 11 7 -3 8 0 5 9 -4 12 0 16 16 16 14 0 19
4 14 13 -5 7 0 6 11 -3 11 -9 16 -10 11 -2 -6 11 5 17 27 13 4 0 7 4 7 10 0 6
7 8 16 5 8 -3 13 -2 10 3 -3 5 2 15 11 22 12 10 14 10 9 2 -12 -20 12 -15 34
7 11 11 20 17 20 14 0 -4 6 -1 13 5 8 6 17 8 20 4 4 -3 7 0 7 8 0 13 12 17 57
21 7 1 10 5 7 10 -5 7 10 12 29 9 4 0 7 3 7 9 0 5 7 10 16 10 8 0 13 4 10 9
-3 5 8 7 24 6 16 -1 28 1 25 4 -2 4 5 15 16 24 10 9 19 13 19 9 0 -5 7 -9 15
-9 8 0 13 3 11 6 -4 6 20 32 29 31 34 -1 45 2 40 10 -3 6 1 11 9 11 31 3 35 4
59 26 19 16 28 18 37 10 10 -9 11 -9 6 1 -4 7 -1 12 8 12 9 0 16 4 16 9 0 5 7
12 16 15 8 3 12 2 9 -4 -3 -6 1 -7 9 -4 9 3 14 10 11 14 -7 12 32 23 46 14 8
-4 9 -3 5 4 -4 7 -2 12 4 12 6 0 9 4 6 9 -4 5 3 7 14 4 11 -3 20 0 20 6 0 6 3
10 8 10 21 -4 32 2 26 14 -4 6 -4 9 0 5 11 -9 67 12 60 23 -3 6 8 7 26 4 23
-4 29 -2 24 6 -4 8 -3 9 4 5 9 -5 9 -13 2 -27 -6 -11 -15 -17 -20 -14 -4 3 -6
-3 -3 -14 3 -10 -1 -22 -8 -26 -8 -6 -10 -4 -4 6 5 8 4 11 -1 6 -5 -5 -9 -12
-9 -15 0 -4 -4 -13 -9 -21 -7 -11 -6 -12 5 -6 12 8 12 6 1 -8 -8 -9 -11 -21
-7 -26 4 -7 -1 -8 -12 -4 -10 3 -15 3 -11 -2 4 -4 1 -13 -8 -19 -8 -6 -16 -21
-17 -34 0 -12 -5 -22 -9 -22 -4 0 -8 -7 -8 -16 0 -8 -5 -12 -10 -9 -6 4 -10 3
-9 -2 5 -28 -2 -45 -17 -39 -9 3 -12 2 -9 -5 4 -5 1 -17 -7 -26 -9 -12 -9 -15
-1 -9 9 5 11 2 7 -8 -3 -8 -12 -17 -19 -20 -8 -3 -12 -14 -10 -25 3 -15 0 -18
-12 -14 -12 5 -15 2 -10 -9 3 -10 0 -19 -10 -22 -8 -4 -13 -13 -10 -20 3 -8
-1 -20 -9 -27 -9 -7 -13 -21 -10 -31 4 -16 2 -17 -10 -7 -12 10 -13 9 -8 -5 3
-9 1 -16 -6 -16 -6 0 -9 -4 -5 -9 3 -5 -1 -15 -8 -23 -7 -7 -15 -17 -18 -23
-2 -5 -7 -9 -11 -8 -4 2 -5 -4 -2 -11 3 -8 -5 -25 -17 -37 -15 -15 -19 -24
-10 -27 9 -3 9 -7 0 -18 -6 -8 -15 -11 -20 -8 -5 3 -6 -3 -2 -12 5 -13 3 -15
-8 -9 -12 8 -12 6 0 -8 9 -12 10 -17 2 -17 -7 0 -10 -4 -7 -8 3 -5 -5 -17 -17
-27 -15 -13 -18 -20 -8 -23 8 -3 5 -8 -11 -16 -12 -7 -22 -19 -20 -28 1 -9 -8
-24 -20 -33 -20 -15 -21 -17 -3 -11 18 5 18 4 4 -6 -9 -7 -14 -20 -11 -28 3
-8 1 -12 -3 -8 -12 11 -32 -15 -27 -34 2 -10 -1 -18 -7 -18 -6 0 -11 -7 -11
-15 0 -8 -4 -15 -10 -15 -5 0 -10 -7 -10 -15 0 -8 -6 -15 -12 -15 -9 0 -8 -4
2 -10 13 -8 12 -10 -3 -10 -10 0 -16 -4 -13 -9 8 -13 -4 -42 -15 -35 -5 3 -6
-3 -2 -12 5 -13 3 -15 -7 -9 -9 6 -11 4 -5 -4 4 -8 -1 -18 -13 -26 -13 -10
-18 -22 -15 -40 4 -19 1 -25 -13 -25 -9 0 -14 -3 -11 -7 4 -3 -1 -15 -10 -26
-10 -11 -12 -17 -5 -13 11 7 12 4 3 -13 -7 -11 -16 -21 -21 -21 -5 0 -7 -9 -5
-20 3 -13 0 -18 -7 -14 -8 5 -9 1 -5 -10 4 -9 3 -15 -2 -12 -11 7 -23 -22 -15
-35 3 -5 -1 -9 -9 -9 -8 0 -17 -14 -21 -31 -4 -21 -10 -28 -18 -23 -7 4 -10 4
-6 -1 4 -4 2 -15 -5 -23 -9 -13 -9 -14 0 -8 9 5 11 2 7 -8 -3 -9 -10 -13 -15
-10 -9 5 -13 -9 -10 -35 2 -7 -2 -10 -8 -6 -6 3 -11 -1 -11 -10 0 -10 -5 -13
-12 -9 -9 5 -9 3 1 -9 11 -14 11 -18 -3 -23 -10 -4 -15 -13 -11 -21 3 -10 1
-13 -9 -10 -11 4 -13 1 -9 -10 4 -10 2 -14 -4 -10 -6 4 -9 -4 -7 -19 2 -20 -1
-24 -14 -19 -9 3 -13 3 -9 -1 4 -4 1 -14 -6 -22 -10 -13 -9 -14 3 -7 13 8 13
7 1 -8 -7 -9 -10 -17 -5 -17 5 -1 0 -8 -11 -18 -11 -9 -21 -26 -23 -36 -2 -10
-10 -25 -17 -33 -8 -7 -11 -21 -8 -30 4 -11 3 -14 -5 -9 -7 4 -12 1 -12 -8 0
-9 -5 -16 -12 -16 -6 0 -8 -3 -5 -6 4 -4 -3 -20 -15 -37 -12 -17 -17 -28 -11
-24 6 4 3 -11 -8 -33 -11 -22 -22 -40 -25 -40 -3 0 -2 5 2 12 4 7 3 8 -5 4 -9
-6 -9 -11 0 -22 9 -11 8 -14 -5 -14 -9 0 -16 -5 -16 -11 0 -5 6 -7 13 -3 8 5
8 3 -2 -9 -7 -9 -18 -14 -23 -11 -6 4 -5 -3 1 -15 10 -17 9 -20 -4 -15 -9 4
-15 3 -14 -2 1 -5 0 -12 -1 -16 -1 -5 -3 -11 -4 -15 -7 -29 -19 -53 -26 -53
-4 0 -7 -11 -5 -25 2 -22 0 -23 -14 -13 -9 7 -13 8 -9 4 4 -5 3 -15 -3 -22 -7
-8 -6 -14 2 -20 8 -5 10 -3 4 7 -6 11 -5 12 6 2 16 -16 39 -17 39 -2 0 5 -6 7
-12 4 -7 -4 1 5 19 19 18 15 30 33 27 40 -3 8 4 23 16 34 12 11 22 29 23 40 0
11 5 18 9 16 4 -3 8 2 8 10 0 9 4 16 9 16 5 0 11 9 14 21 3 12 10 18 15 15 6
-4 8 3 4 16 -3 14 -2 19 6 14 7 -4 12 -1 12 9 0 8 7 18 15 21 8 4 12 10 9 15
-3 5 0 9 6 9 7 0 10 5 8 12 -3 7 6 22 19 34 13 12 22 28 21 35 -2 8 3 13 10
11 8 -1 12 3 10 10 -3 7 7 23 21 35 14 13 20 23 14 23 -7 0 -13 5 -13 12 0 6
3 9 6 5 11 -10 34 20 34 44 0 12 3 19 7 16 8 -9 34 43 27 54 -3 5 -2 9 3 8 19
-3 34 2 29 10 -8 13 4 42 15 35 5 -3 12 8 15 25 4 17 11 31 16 31 6 0 8 7 4
15 -3 9 0 15 10 15 8 0 13 4 9 9 -3 6 2 14 11 19 11 6 15 16 11 26 -4 10 -3
15 3 11 6 -4 15 7 21 24 6 17 16 28 23 25 7 -3 13 2 13 10 0 8 -5 12 -11 9 -6
-3 2 8 18 25 17 18 26 37 23 46 -4 9 -3 15 1 15 28 -4 34 1 21 18 -12 15 -12
16 5 10 16 -6 17 -5 7 7 -9 11 -9 16 0 22 8 5 9 3 4 -6 -5 -9 -4 -11 3 -6 7 4
12 12 12 18 0 6 8 17 18 25 10 9 11 11 2 7 -11 -6 -10 -2 3 13 9 11 17 25 17
31 0 7 4 12 8 12 4 0 14 16 21 35 7 20 17 33 23 29 6 -4 9 -1 6 7 -3 8 2 20
11 27 13 11 13 12 1 7 -10 -4 -9 -2 2 8 10 8 15 17 11 20 -3 4 -2 7 4 7 6 0
13 9 16 21 3 12 10 18 16 14 7 -4 8 0 4 11 -4 11 -3 15 5 10 7 -4 10 1 7 13
-2 11 3 22 12 25 9 4 13 13 9 22 -3 8 -2 12 4 9 10 -6 15 9 10 30 -1 5 1 7 5
3 10 -9 34 14 28 28 -2 5 5 18 16 28 11 10 17 24 15 31 -3 7 0 16 7 21 8 4 10
3 5 -4 -4 -7 -5 -12 -2 -12 2 0 11 14 20 30 9 20 10 28 3 24 -7 -3 -1 4 13 15
15 13 20 21 11 21 -9 0 -7 6 7 19 12 10 22 22 22 26 0 4 8 14 18 22 9 8 11 12
5 8 -7 -3 -13 -2 -13 3 0 6 7 13 16 16 9 4 14 9 11 13 -4 3 1 12 11 20 9 8 11
11 4 8 -11 -6 -11 -3 -1 13 7 12 17 19 21 16 4 -3 5 3 1 12 -4 10 -2 15 3 11
5 -3 14 6 21 19 8 18 8 23 0 18 -7 -3 -4 1 6 9 9 8 17 22 17 31 0 9 7 19 15
22 8 4 12 10 9 15 -3 5 -1 9 3 9 5 0 14 9 21 21 11 17 11 20 0 14 -7 -3 -5 0
4 8 10 8 15 17 11 20 -3 4 -1 7 5 7 7 0 12 7 12 16 0 8 4 13 9 10 5 -4 8 5 7
18 -2 16 1 23 10 19 7 -3 14 5 16 19 2 13 9 22 17 20 12 -3 12 0 1 12 -7 10
-8 16 -2 16 6 0 14 9 17 20 4 11 11 17 17 14 7 -5 9 0 6 14 -4 12 -2 20 3 16
8 -5 11 3 8 23 0 3 7 10 16 15 12 7 13 13 5 23 -8 10 -8 15 1 21 8 5 9 3 4 -6
-5 -8 -3 -11 6 -8 8 3 13 11 11 17 -1 6 2 11 8 11 6 0 9 6 8 13 -2 6 2 11 9
10 7 -2 10 4 7 12 -4 9 -1 21 5 29 6 7 7 16 3 20 -4 4 0 6 8 4 9 -2 14 4 14
15 -1 10 5 17 15 17 14 0 14 2 1 10 -13 8 -13 10 1 10 9 0 16 7 17 15 1 8 3
22 4 30 1 12 4 12 17 2 12 -10 13 -9 7 1 -5 8 -1 19 10 28 11 9 13 12 5 8 -9
-4 -12 -2 -9 7 3 8 11 13 17 12 6 -2 11 10 11 27 0 17 -4 30 -10 30 -5 0 -9 3
-7 8 1 4 -9 19 -22 32 -13 14 -21 18 -17 10 4 -8 0 -6 -9 5 -9 11 -21 19 -27
17 -6 -2 -14 2 -18 7 -7 12 -70 -8 -70 -22 0 -4 -5 -5 -10 -2 -6 3 -13 -1 -16
-9 -3 -9 -10 -13 -15 -10 -5 3 -9 1 -9 -5 0 -5 -9 -8 -20 -6 -11 2 -20 0 -20
-4 0 -5 -9 -11 -21 -14 -14 -4 -18 -10 -13 -19 6 -10 4 -10 -9 1 -11 9 -17 10
-17 2 0 -6 -7 -11 -16 -11 -9 0 -12 -5 -8 -12 5 -7 2 -9 -9 -5 -16 6 -67 -13
-67 -25 0 -5 -8 -8 -17 -8 -9 0 -25 -8 -36 -17 -15 -13 -18 -14 -12 -3 7 12 6
13 -7 3 -8 -7 -19 -9 -23 -5 -5 4 -5 -1 -2 -11 4 -11 3 -16 -3 -12 -6 3 -10 0
-10 -7 0 -9 -3 -9 -10 2 -8 13 -10 13 -10 -1 0 -11 -8 -15 -25 -14 -14 2 -28
-2 -32 -7 -4 -7 -1 -8 7 -3 9 6 11 4 5 -4 -4 -7 -16 -11 -26 -8 -20 5 -43 -15
-31 -28 4 -5 1 -5 -7 0 -7 4 -16 4 -20 -1 -12 -17 -71 -43 -71 -32 0 6 -11 -1
-25 -16 -14 -15 -25 -22 -25 -17 0 6 -5 11 -11 11 -5 0 -7 -5 -3 -12 5 -8 2
-9 -9 -5 -11 4 -17 1 -17 -7 0 -8 -7 -17 -16 -20 -9 -4 -13 -2 -8 5 4 8 0 7
-15 0 -11 -7 -21 -17 -21 -24 0 -7 -4 -6 -10 3 -8 12 -10 12 -10 1 0 -8 -3
-12 -6 -8 -9 8 -33 -16 -26 -27 3 -5 -2 -7 -10 -3 -9 3 -21 0 -28 -6 -10 -9
-11 -9 -5 3 8 13 6 13 -8 1 -9 -7 -14 -17 -11 -22 3 -5 -3 -6 -12 -2 -11 4
-15 3 -11 -4 5 -7 0 -9 -13 -6 -12 3 -20 0 -20 -6 0 -7 -4 -9 -10 -6 -5 3 -10
1 -10 -5 0 -6 -6 -10 -14 -8 -8 2 -22 -6 -31 -17 -9 -11 -14 -14 -10 -7 3 6 1
12 -4 12 -6 0 -11 -5 -11 -11 0 -6 -7 -8 -16 -5 -8 3 -12 2 -9 -4 3 -5 -4 -14
-15 -20 -11 -6 -20 -7 -20 -3 0 4 -7 -2 -16 -13 -8 -10 -13 -12 -9 -4 4 9 0 7
-9 -4 -8 -10 -19 -15 -25 -12 -5 4 -12 2 -16 -4 -4 -6 -11 -8 -16 -5 -5 4 -9
-1 -9 -9 0 -8 -5 -18 -12 -22 -8 -5 -9 -2 -4 12 6 16 4 16 -17 -4 -13 -12 -27
-19 -30 -15 -4 3 -7 1 -7 -5 0 -6 -10 -9 -21 -7 -12 3 -19 2 -16 -1 8 -8 -16
-33 -25 -27 -5 2 -8 0 -8 -5 0 -6 -8 -9 -17 -8 -10 0 -17 -4 -16 -10 1 -7 -9
-9 -25 -7 -22 4 -24 2 -12 -7 13 -10 12 -11 -5 -7 -11 2 -26 -2 -33 -10 -7 -7
-17 -11 -23 -8 -5 4 -9 1 -9 -4 0 -6 -9 -11 -21 -11 -11 0 -17 -4 -14 -10 3
-5 1 -11 -4 -11 -6 -1 -17 -2 -23 -3 -7 -1 -12 -7 -11 -13 2 -7 -6 -10 -17 -8
-11 2 -20 -1 -20 -6 0 -6 -4 -8 -9 -5 -5 3 -12 -1 -15 -10 -7 -19 -22 -11 -29
17 -3 11 -3 19 0 16 2 -3 14 4 26 16 26 26 60 89 43 81 -6 -3 -2 2 9 11 11 9
21 20 21 25 1 6 2 15 3 21 0 5 6 7 11 4 6 -3 10 3 10 14 0 12 5 21 11 21 5 0
8 4 5 9 -4 5 -1 11 4 13 6 2 12 13 12 25 1 12 7 19 15 16 8 -3 13 3 13 16 0
12 4 21 9 21 8 0 19 27 17 42 -1 4 8 13 18 21 12 9 16 19 11 27 -5 9 -4 11 3
6 8 -5 12 1 12 14 0 12 4 19 8 16 4 -2 14 5 22 17 12 21 12 21 -5 7 -18 -14
-18 -13 0 12 11 15 23 28 27 28 4 0 5 9 3 20 -2 11 0 18 6 15 5 -4 9 -1 9 5 0
6 4 8 10 5 5 -3 7 0 4 8 -3 8 2 21 10 30 9 9 16 23 16 31 0 9 9 21 19 28 15 9
17 15 9 25 -8 10 -6 13 5 13 9 0 19 5 23 12 5 7 2 9 -7 4 -8 -4 -7 -2 2 6 9 7
18 18 20 23 2 6 8 9 12 7 5 -1 6 2 2 7 -7 12 24 63 35 56 4 -2 5 7 2 20 -3 19
1 27 19 34 13 5 19 10 12 10 -6 1 -9 10 -6 21 3 11 8 18 12 16 9 -6 26 17 26
34 0 21 30 62 39 53 4 -4 4 1 0 11 -5 14 -4 17 4 12 8 -5 12 0 12 13 0 12 5
21 11 21 5 0 7 5 4 10 -3 6 -1 10 5 10 6 0 9 4 6 9 -4 5 -3 11 1 13 5 1 19 24
32 50 14 28 28 45 35 41 6 -3 8 -3 4 2 -10 11 11 47 23 39 7 -4 6 3 -1 16 -8
15 -8 20 -1 16 7 -5 11 1 11 14 0 12 4 19 9 16 5 -3 12 1 15 10 4 10 2 13 -7
8 -6 -4 2 8 18 26 17 18 23 30 15 26 -8 -4 -1 5 15 20 20 18 23 25 11 21 -16
-6 -17 -5 -6 8 7 8 17 12 23 8 5 -3 7 -1 3 5 -3 6 -2 13 3 16 4 3 11 19 14 36
4 16 12 30 18 30 8 0 7 -6 -2 -17 -12 -16 -12 -17 2 -6 9 7 14 25 13 42 -1 17
1 30 5 29 21 -2 30 4 24 18 -3 8 4 25 17 39 14 15 19 28 14 37 -5 9 -2 8 11
-2 17 -14 18 -14 6 8 -10 18 -9 22 3 22 10 0 13 6 10 15 -4 9 0 15 10 15 9 0
15 3 14 8 -3 16 23 63 32 57 6 -4 7 1 3 10 -3 10 0 21 8 26 8 4 14 14 15 21 0
7 2 21 2 31 1 9 9 17 18 17 8 0 12 5 9 10 -3 6 -2 10 4 10 6 0 15 10 22 21 9
17 8 20 -3 13 -7 -4 -5 2 5 13 9 11 17 23 17 27 0 4 9 21 21 37 11 16 17 29
12 29 -4 0 0 5 10 11 9 6 15 14 12 19 -3 4 2 11 10 14 10 3 14 15 12 30 -4 30
-17 47 -17 22z"/>
<path d="M1585 76 c1 -12 -1 -26 -6 -31 -5 -7 0 -11 14 -12 17 -2 19 0 7 7
-10 7 -11 10 -2 10 6 0 12 5 12 11 0 5 -5 7 -12 3 -7 -4 -8 -3 -4 5 6 9 11 9
24 -1 12 -10 14 -10 8 0 -4 7 -2 12 5 12 22 0 -1 14 -25 16 -17 0 -22 -4 -21
-20z"/>
</g>
</svg>
